<svg xmlns="http://www.w3.org/2000/svg" width="119" height="83" viewBox="0 0 119 83"><g><g><g><path fill="#d9dbeb" d="M111.762 82.3H7.24a7.238 7.238 0 0 1-7.238-7.238V7.418A7.238 7.238 0 0 1 7.24.179h104.522A7.238 7.238 0 0 1 119 7.418v67.644a7.238 7.238 0 0 1-7.238 7.238z"/></g><g><path fill="#d9dbeb" d="M74.64 37.681l-4.313 3.559 46.835 38.637A7.316 7.316 0 0 0 119 75.013v-.736z"/></g><g><path fill="#d9dbeb" d="M44.36 37.681l4.313 3.559L1.838 79.877A7.316 7.316 0 0 1 0 75.013v-.736z"/></g><g><path fill="#fff" d="M59.5 50.171L48.673 41.24 1.84 79.876A7.128 7.128 0 0 0 7.19 82.3h104.62a7.128 7.128 0 0 0 5.351-2.422v-.001L70.327 41.24z"/></g><g><path fill="#fff" d="M59.5 50.171l57.662-47.568v-.001A7.128 7.128 0 0 0 111.81.18H7.19a7.128 7.128 0 0 0-5.352 2.423z"/></g><g><path fill="#fcd1e5" d="M75.594 41.816c-.794-5.802-4.892-8.19-8.463-8.49-3.009-.254-5.833.81-7.631 2.692-1.798-1.882-4.624-2.946-7.631-2.693-3.571.3-7.67 2.689-8.463 8.49-1.606 11.738 14.639 19.78 15.33 20.116a1.745 1.745 0 0 0 1.526 0c.693-.336 16.938-8.378 15.332-20.115z"/></g><g><g><path fill="#ffb2d6" d="M75.594 41.816c-.794-5.802-4.892-8.19-8.463-8.49a10.032 10.032 0 0 0-4.937.818c2.527 1.15 4.76 3.548 5.325 7.672 1.174 8.586-7.203 15.194-12.057 18.255 1.782 1.124 3.09 1.77 3.275 1.86a1.744 1.744 0 0 0 1.526 0c.692-.336 16.937-8.378 15.331-20.115z"/></g></g></g></g></svg>