<svg xmlns="http://www.w3.org/2000/svg" width="85" height="137" viewBox="0 0 85 137"><g><g><g><g><path fill="#ffdcdc" d="M68.867 77.126l8.364-1.767a6.04 6.04 0 0 1 2.496 11.818l-8.364 1.766a6.038 6.038 0 1 1-2.496-11.817z"/></g><g><path fill="#ffdcdc" d="M68.867 61.381l8.364-1.767a6.04 6.04 0 0 1 2.496 11.817L71.363 73.2a6.04 6.04 0 0 1-2.496-11.818z"/></g><g><path fill="#ffdcdc" d="M68.867 45.637l8.364-1.767a6.04 6.04 0 0 1 2.496 11.817l-8.364 1.766a6.039 6.039 0 1 1-2.496-11.816z"/></g><g><path fill="#ffdcdc" d="M68.867 29.892l8.364-1.767a6.038 6.038 0 1 1 2.496 11.817l-8.364 1.767a6.04 6.04 0 0 1-2.496-11.817z"/></g><g><path fill="#ffdcdc" d="M41.071 24.854h17.325v69.965c0 12.39-10.043 22.432-22.432 22.432h-.603v18.392c0 .75-.607 1.358-1.358 1.358H1.358C.608 137 0 136.393 0 135.643V70.01c0-7.698 3.492-14.98 9.494-19.8z"/></g></g><g><path fill="#d6b0b0" d="M58.396 70.48a8.25 8.25 0 0 0-6.197.284l-21.54 9.88-10.52 4.827.053 16.095.044 13.187h10.325c7.125 0 12.9-5.775 12.9-12.9v-8.87l14.935-6.852z"/></g><g><path fill="#fff" d="M78.097 7.62v90.72c0 3.083-2.5 5.583-5.583 5.583h-51.27a5.583 5.583 0 0 1-5.583-5.583V7.62c0-3.084 2.499-5.583 5.582-5.583h51.27a5.582 5.582 0 0 1 5.584 5.583z"/></g><g><path fill="#e0e6ef" d="M72.514 2.036h-7.06c3.083 0 5.582 2.5 5.582 5.584v90.72c0 3.083-2.5 5.582-5.583 5.582h7.06c3.084 0 5.583-2.499 5.583-5.582V7.62a5.582 5.582 0 0 0-5.582-5.584z"/></g><g><path fill="#63688e" d="M72.514 4.073A3.55 3.55 0 0 1 76.06 7.62v90.72a3.55 3.55 0 0 1-3.546 3.546h-51.27a3.55 3.55 0 0 1-3.547-3.546V7.62a3.55 3.55 0 0 1 3.546-3.547zm7.62 94.267V7.62c0-4.202-3.418-7.62-7.62-7.62h-51.27c-4.203 0-7.62 3.418-7.62 7.62v90.72c0 4.201 3.417 7.62 7.62 7.62h51.27c4.202 0 7.62-3.419 7.62-7.62z"/></g><g><path fill="#63688e" d="M61.329 2.036v3.2a5.054 5.054 0 0 1-5.054 5.055H37.483a5.055 5.055 0 0 1-5.055-5.054v-3.2z"/></g><g><path fill="#63688e" d="M52.578 98.953h-11.4a2.007 2.007 0 1 1 0-4.013h11.4a2.006 2.006 0 1 1 0 4.013z"/></g><g><g><path fill="#ffd4e8" d="M66.552 41.767c-.414-3.024-1.598-5.448-3.52-7.203-1.683-1.537-3.842-2.455-6.245-2.657-2.269-.19-4.583.285-6.515 1.342-1.363.745-2.471 1.751-3.245 2.926-.774-1.175-1.883-2.181-3.246-2.926-1.931-1.057-4.245-1.533-6.514-1.342-2.403.202-4.563 1.12-6.245 2.657-1.922 1.755-3.107 4.179-3.52 7.203-.458 3.347.292 6.746 2.23 10.1 1.516 2.627 3.763 5.232 6.678 7.743 4.917 4.235 9.986 6.721 10.2 6.825a.955.955 0 0 0 .834 0c.214-.104 5.283-2.59 10.2-6.825 2.915-2.51 5.162-5.116 6.678-7.742 1.938-3.355 2.688-6.754 2.23-10.101z"/></g><g><g><path fill="#ffb2d6" d="M66.552 41.767c-.414-3.024-1.598-5.448-3.52-7.203-1.683-1.537-3.842-2.455-6.245-2.657a11.897 11.897 0 0 0-3.295.187c1.875.379 3.56 1.22 4.928 2.47 1.923 1.755 3.107 4.179 3.52 7.203.459 3.347-.291 6.746-2.229 10.1-1.517 2.627-3.763 5.232-6.678 7.743-3.146 2.71-6.353 4.702-8.312 5.814 1.103.626 1.811.974 1.888 1.011a.954.954 0 0 0 .835 0c.214-.104 5.283-2.59 10.2-6.825 2.914-2.51 5.161-5.116 6.678-7.742 1.938-3.355 2.688-6.754 2.23-10.101z"/></g></g><g><g><path fill="#464649" d="M39.593 47.749a1.854 1.854 0 0 1-1.852-1.853c0-1.021.83-1.852 1.852-1.852 1.021 0 1.852.83 1.852 1.852a1.854 1.854 0 0 1-1.852 1.853z"/></g><g><path fill="#464649" d="M54.46 47.749a1.854 1.854 0 0 1-1.852-1.853c0-1.021.831-1.852 1.853-1.852 1.021 0 1.852.83 1.852 1.852 0 1.022-.83 1.853-1.852 1.853z"/></g></g><g><path fill="#464649" d="M47.027 52.18a4.23 4.23 0 0 1-4.054-2.977.955.955 0 0 1 1.822-.57 2.329 2.329 0 0 0 2.232 1.638 2.329 2.329 0 0 0 2.232-1.638.954.954 0 1 1 1.822.57 4.23 4.23 0 0 1-4.054 2.978z"/></g></g></g></g></svg>