<svg xmlns="http://www.w3.org/2000/svg" width="81" height="113" viewBox="0 0 81 113"><g><g><g><path fill="#8188be" d="M40.855.8C62.99.8 81 18.81 81 40.945c0 7.019-2.071 15.143-6.156 24.148-3.229 7.119-7.723 14.82-13.358 22.887-9.566 13.697-19.273 23.888-19.37 23.989a1.763 1.763 0 0 1-2.523 0c-.096-.101-9.803-10.292-19.369-23.989-5.635-8.068-10.13-15.768-13.358-22.887C2.78 56.088.71 47.963.71 40.945.71 18.81 18.718.8 40.855.8z"/></g><g><path fill="#6e749e" d="M54.504 86.243c5.635-8.069 10.129-15.769 13.358-22.888 4.085-9.004 6.156-17.129 6.156-24.148 0-17.538-11.306-32.482-27.011-37.935C66.233 4.24 81 20.9 81 40.945c0 7.019-2.072 15.143-6.156 24.148-3.23 7.119-7.724 14.82-13.358 22.887-9.567 13.697-19.273 23.888-19.37 23.989a1.763 1.763 0 0 1-2.523 0c-.032-.035-1.162-1.22-3.01-3.301 3.064-3.365 10.534-11.849 17.92-22.425z"/></g><g><path fill="#fff" d="M39.131 10.858c-15.946 0-28.92 12.973-28.92 28.92 0 15.946 12.974 28.92 28.92 28.92 15.946 0 28.92-12.974 28.92-28.92 0-15.947-12.974-28.92-28.92-28.92z"/></g><g><g><path fill="#ffd4e8" d="M54.78 34.048c-.334-2.444-1.291-4.402-2.845-5.82-1.359-1.242-3.104-1.985-5.046-2.148-1.834-.154-3.704.231-5.265 1.085-1.101.602-1.997 1.415-2.622 2.365-.626-.95-1.522-1.763-2.623-2.365-1.561-.854-3.43-1.239-5.265-1.085-1.942.163-3.687.906-5.046 2.147-1.554 1.42-2.51 3.378-2.845 5.821-.37 2.706.236 5.452 1.802 8.163 1.225 2.123 3.041 4.228 5.397 6.257 3.973 3.423 8.07 5.431 8.242 5.515a.772.772 0 0 0 .675 0c.172-.084 4.269-2.092 8.243-5.515 2.355-2.03 4.17-4.134 5.397-6.257 1.565-2.711 2.171-5.458 1.801-8.163z"/></g><g><g><path fill="#ffb2d6" d="M54.78 34.048c-.334-2.444-1.291-4.402-2.845-5.82-1.359-1.242-3.104-1.985-5.046-2.148a9.614 9.614 0 0 0-2.663.151c1.515.306 2.877.986 3.983 1.996 1.553 1.42 2.51 3.378 2.845 5.821.37 2.706-.236 5.452-1.802 8.163-1.226 2.123-3.041 4.228-5.397 6.257-2.542 2.19-5.134 3.8-6.717 4.698.891.506 1.464.787 1.526.817a.771.771 0 0 0 .675 0c.172-.084 4.269-2.092 8.243-5.515 2.355-2.03 4.17-4.134 5.396-6.257 1.566-2.711 2.172-5.458 1.802-8.163z"/></g></g><g><g><path fill="#464649" d="M32.994 38.882a1.499 1.499 0 0 1-1.497-1.496c0-.826.672-1.497 1.497-1.497.825 0 1.497.671 1.497 1.497 0 .825-.672 1.496-1.497 1.496z"/></g><g><path fill="#464649" d="M45.01 38.882a1.499 1.499 0 0 1-1.498-1.496c0-.826.672-1.497 1.497-1.497.826 0 1.497.671 1.497 1.497 0 .825-.671 1.496-1.497 1.496z"/></g></g><g><path fill="#464649" d="M39.002 42.464a3.418 3.418 0 0 1-3.277-2.406.771.771 0 0 1 1.473-.461 1.882 1.882 0 0 0 1.804 1.324c.83 0 1.555-.532 1.803-1.324a.771.771 0 1 1 1.473.46 3.418 3.418 0 0 1-3.276 2.407z"/></g></g></g></g></svg>