<svg xmlns="http://www.w3.org/2000/svg" width="182.572" height="182.575" viewBox="0 0 182.572 182.575">
  <g id="baby" transform="translate(0 0)">
    <path id="Path_14" data-name="Path 14" d="M453.167,28.877A2.386,2.386,0,0,1,451.48,24.8l4.205-4.205a26.589,26.589,0,0,1,11.354-6.714,2.386,2.386,0,1,1,1.331,4.582,21.8,21.8,0,0,0-9.311,5.506l-4.205,4.206A2.38,2.38,0,0,1,453.167,28.877Z" transform="translate(-307.388 10.306)" fill="#495059"/>
    <circle id="Ellipse_4" data-name="Ellipse 4" cx="16.589" cy="16.589" r="16.589" transform="translate(67.513 19.709)" fill="#ffdcdc"/>
    <circle id="Ellipse_6" data-name="Ellipse 6" cx="16.589" cy="16.589" r="16.589" transform="translate(129.689 81.884)" fill="#f2d1d1"/>
    <circle id="Ellipse_8" data-name="Ellipse 8" cx="31.959" cy="31.959" r="31.959" transform="translate(0 118.656)" fill="#686e92"/>
    <path id="Path_15" data-name="Path 15" d="M55.449,365.622a31.959,31.959,0,1,0-54.14-27.7,51.92,51.92,0,0,0,11.163,5.549c4.161,1.609,9.245,3.28,15,4.938,1.658,5.753,3.329,10.837,4.938,15a51.947,51.947,0,0,0,5.548,11.163A31.809,31.809,0,0,0,55.449,365.622Z" transform="translate(-0.893 -192.407)" opacity="0.1"/>
    <ellipse id="Ellipse_9" data-name="Ellipse 9" cx="48.98" cy="47.908" rx="48.98" ry="47.908" transform="translate(45.552 69.268) rotate(-45)" fill="#ffdcdc"/>
    <g id="Group_5" data-name="Group 5" transform="translate(81.116 39.329)">
      <ellipse id="Ellipse_10" data-name="Ellipse 10" cx="7.763" cy="9.748" rx="7.763" ry="9.748" transform="translate(0 10.979) rotate(-45)" fill="#ffb2d6"/>
      <ellipse id="Ellipse_11" data-name="Ellipse 11" cx="7.763" cy="9.748" rx="7.763" ry="9.748" transform="translate(62.132 51.152) rotate(135)" fill="#ffb2d6"/>
    </g>
    <g id="Group_6" data-name="Group 6" transform="translate(97.824 42.73)">
      <path id="Path_16" data-name="Path 16" d="M316.476,85.062a2.386,2.386,0,0,1-1.687-4.073A2.254,2.254,0,0,0,311.6,77.8a2.386,2.386,0,1,1-3.374-3.374,7.026,7.026,0,1,1,9.936,9.935A2.377,2.377,0,0,1,316.476,85.062Z" transform="translate(-307.528 -72.37)" fill="#495059"/>
      <path id="Path_17" data-name="Path 17" d="M408.676,177.271a2.386,2.386,0,0,1-1.687-4.073,2.254,2.254,0,0,0-3.188-3.188,2.386,2.386,0,1,1-3.374-3.374,7.026,7.026,0,0,1,9.936,9.936A2.38,2.38,0,0,1,408.676,177.271Z" transform="translate(-370.4 -135.249)" fill="#495059"/>
      <path id="Path_18" data-name="Path 18" d="M349.81,145.918a8.908,8.908,0,0,1-8.891-9.525,2.386,2.386,0,0,1,4.76.327,4.137,4.137,0,0,0,4.417,4.417,2.386,2.386,0,1,1,.327,4.76Q350.116,145.919,349.81,145.918Z" transform="translate(-330.283 -114.512)" fill="#495059"/>
    </g>
    <path id="Path_19" data-name="Path 19" d="M241.713,7.63a49.615,49.615,0,0,0-20.864,12.5c-19.128,19.128-19.467,49.8-.757,68.511a47.461,47.461,0,0,0,40.026,13.382C229.584,91.881,220.233,40.9,241.713,7.63Z" transform="translate(-140.662 14.506)" opacity="0.05"/>
    <path id="Path_20" data-name="Path 20" d="M43.538,220.863c19.5.234,63.586,4.878,88.964,18.125a8.824,8.824,0,0,1,4.181,10.933c-3.98,10.605-14.485,26.275-24.1,35.7a24.232,24.232,0,0,1-18.33,6.863c-26.822-1.525-86-15.148-90.313-23.976-4.379-8.968,9.378-32.041,25.823-43.473A23.617,23.617,0,0,1,43.538,220.863Z" transform="translate(-2.126 -130.897)" fill="#6c719a"/>
    <path id="Path_21" data-name="Path 21" d="M43.538,220.863c19.5.234,63.586,4.878,88.964,18.125a8.824,8.824,0,0,1,4.181,10.933c-3.98,10.605-14.485,26.275-24.1,35.7a24.232,24.232,0,0,1-18.33,6.863c-26.822-1.525-86-15.148-90.313-23.976-4.379-8.968,9.378-32.041,25.823-43.473A23.617,23.617,0,0,1,43.538,220.863Z" transform="translate(-2.126 -130.897)" fill="#8188be" opacity="0.1"/>
    <path id="Path_22" data-name="Path 22" d="M61.473,225.036a69.317,69.317,0,0,0-11.854,10.651,390.386,390.386,0,0,0,8.015,40.872c.238.946.477,1.877.718,2.8,20.645,6.323,50.261,12.084,67.27,13.1q1.095-1.406,2.1-2.843a30.085,30.085,0,0,0,5.361-17.641,306.172,306.172,0,0,0-4.522-44.814,295.1,295.1,0,0,0-53.311-6.3A23.623,23.623,0,0,0,61.473,225.036Z" transform="translate(-33.835 -130.896)" opacity="0.1"/>
    <path id="Path_23" data-name="Path 23" d="M137.511,180.929c-.233-19.5-4.878-63.586-18.125-88.964a8.824,8.824,0,0,0-10.933-4.181c-10.605,3.98-26.275,14.485-35.7,24.1a24.232,24.232,0,0,0-6.863,18.33c1.525,26.822,15.148,86,23.976,90.313,8.968,4.38,32.042-9.378,43.473-25.823A23.62,23.62,0,0,0,137.511,180.929Z" transform="translate(-44.902 -39.765)" fill="#8188be"/>
    <g id="Group_7" data-name="Group 7" transform="translate(33.191 69.364)" opacity="0.1">
      <path id="Path_24" data-name="Path 24" d="M107.831,295.419a2.385,2.385,0,0,1-2.337-1.918c-.2-1.015-1.152-7.227-1.152-8.431a2.386,2.386,0,0,1,4.771-.013c.026.788.82,6.309,1.06,7.508a2.386,2.386,0,0,1-1.871,2.807A2.429,2.429,0,0,1,107.831,295.419Zm1.282-10.349h0Z" transform="translate(-104.342 -242.418)"/>
      <path id="Path_25" data-name="Path 25" d="M191.82,165.749a2.389,2.389,0,0,1-2.265-3.148c.175-.524.648-1.521,1.714-3.7.295-.6.573-1.173.674-1.4a2.386,2.386,0,1,1,4.347,1.968c-.13.287-.4.833-.733,1.523-.467.955-1.335,2.734-1.479,3.13A2.378,2.378,0,0,1,191.82,165.749Z" transform="translate(-162.365 -156.099)"/>
      <path id="Path_26" data-name="Path 26" d="M214.525,315.617a2.374,2.374,0,0,1-1.2-.323c-1.166-.678-4.425-2.541-5.481-3.022a2.386,2.386,0,1,1,1.979-4.342c1.46.665,5.449,2.976,5.9,3.237a2.386,2.386,0,0,1-1.2,4.45Z" transform="translate(-173.97 -259.486)"/>
      <path id="Path_27" data-name="Path 27" d="M174,425.82a2.386,2.386,0,0,1-2.386-2.386c0-1.315-.343-6.272-.508-8.654-.053-.765-.093-1.342-.108-1.595a2.386,2.386,0,0,1,4.763-.285c.015.245.053.806.1,1.55.252,3.63.52,7.618.52,8.983A2.386,2.386,0,0,1,174,425.82Z" transform="translate(-149.791 -329.682)"/>
      <path id="Path_28" data-name="Path 28" d="M323.458,308.513a2.386,2.386,0,0,1-.793-4.637,39.126,39.126,0,0,0,4.479-2.458c2.077-1.244,2.766-1.645,3.448-1.781a2.386,2.386,0,0,1,1.173,4.619c-.357.17-1.4.794-2.168,1.255a37.436,37.436,0,0,1-5.347,2.866A2.387,2.387,0,0,1,323.458,308.513Zm8.073-4.2h0Z" transform="translate(-252.131 -253.946)"/>
    </g>
  </g>
</svg>
