<svg xmlns="http://www.w3.org/2000/svg" viewBox="0 0 181.739 181.05">
  <g id="give" transform="translate(0 0)">
    <path id="Path_46" data-name="Path 46" d="M210.8,28.519c-1.151-8.413-4.446-15.156-9.794-20.04a29.069,29.069,0,0,0-17.373-7.393A32.5,32.5,0,0,0,165.5,4.82a25.187,25.187,0,0,0-9.03,8.142,25.186,25.186,0,0,0-9.03-8.142A32.5,32.5,0,0,0,129.32,1.086a29.069,29.069,0,0,0-17.373,7.393c-5.348,4.884-8.644,11.627-9.794,20.04-1.274,9.314.813,18.768,6.2,28.1,4.22,7.308,10.471,14.555,18.58,21.54A146.742,146.742,0,0,0,155.314,97.15a2.655,2.655,0,0,0,2.322,0,146.742,146.742,0,0,0,28.378-18.989c8.109-6.985,14.36-14.232,18.58-21.54C209.984,47.287,212.071,37.832,210.8,28.519Z" transform="translate(-65.745 -0.972)" fill="#ffd4e8"/>
    <g id="Group_11" data-name="Group 11" transform="translate(84.315 0.001)">
      <path id="Path_47" data-name="Path 47" d="M298.84,28.52c-1.151-8.413-4.446-15.156-9.794-20.04a29.069,29.069,0,0,0-17.373-7.393,33.1,33.1,0,0,0-9.168.521,28.552,28.552,0,0,1,13.712,6.873c5.348,4.884,8.644,11.627,9.794,20.04,1.274,9.313-.813,18.768-6.2,28.1-4.22,7.308-10.471,14.555-18.58,21.54A149.006,149.006,0,0,1,238.1,94.339c3.067,1.741,5.039,2.709,5.253,2.813a2.655,2.655,0,0,0,2.322,0,146.74,146.74,0,0,0,28.378-18.989c8.109-6.985,14.36-14.232,18.58-21.54C298.027,47.289,300.114,37.834,298.84,28.52Z" transform="translate(-238.103 -0.974)" fill="#ffb2d6"/>
    </g>
    <g id="Group_12" data-name="Group 12" transform="translate(64.894 33.882)">
      <path id="Path_48" data-name="Path 48" d="M188.411,106.962a5.154,5.154,0,1,1,5.154-5.153A5.159,5.159,0,0,1,188.411,106.962Z" transform="translate(-183.258 -96.655)" fill="#464649"/>
      <path id="Path_49" data-name="Path 49" d="M305.225,106.962a5.154,5.154,0,1,1,5.153-5.153A5.159,5.159,0,0,1,305.225,106.962Z" transform="translate(-258.706 -96.655)" fill="#464649"/>
    </g>
    <path id="Path_50" data-name="Path 50" d="M235.422,139.181a11.768,11.768,0,0,1-11.279-8.283,2.656,2.656,0,0,1,5.069-1.587,6.509,6.509,0,0,0,12.42,0A2.656,2.656,0,0,1,246.7,130.9,11.767,11.767,0,0,1,235.422,139.181Z" transform="translate(-144.693 -82.661)" fill="#464649"/>
    <g id="Group_13" data-name="Group 13" transform="translate(122.38 68.179)">
      <path id="Path_51" data-name="Path 51" d="M345.728,265.691l8.808-27.049a7.479,7.479,0,0,1,14.255,4.534l-2.915,9.389a2.656,2.656,0,0,1-.681,1.112L350.11,268.413a2.656,2.656,0,0,1-4.381-2.722Z" transform="translate(-345.598 -219.322)" fill="#d6b0b0"/>
      <path id="Path_52" data-name="Path 52" d="M348.253,269.242a2.656,2.656,0,0,1-2.524-3.478l8.808-27.049a7.432,7.432,0,0,1,6.335-5.127l-9.534,33.7-1.229,1.2A2.654,2.654,0,0,1,348.253,269.242Z" transform="translate(-345.598 -219.395)" fill="#f2d1d1"/>
      <path id="Path_53" data-name="Path 53" d="M388.32,239.213l5.853-18.85a7.276,7.276,0,1,1,13.872,4.4L403.8,237.879a2.656,2.656,0,0,1-4.427,1.039,2.522,2.522,0,0,0-3.567-.042l-3.1,3.025a2.656,2.656,0,0,1-4.393-2.688Z" transform="translate(-373.114 -207.545)" fill="#d6b0b0"/>
      <path id="Path_54" data-name="Path 54" d="M362.146,253.636l20.2-25.424a2.526,2.526,0,0,0-.17-3.331,2.656,2.656,0,0,1-.627-2.673l7.641-23.625a7.33,7.33,0,0,1,14,4.356l-4.106,13.733a63.372,63.372,0,0,1-22.3,32.342L365.84,257.4a2.656,2.656,0,0,1-3.695-3.76Z" transform="translate(-355.914 -193.508)" fill="#d6b0b0"/>
      <path id="Path_55" data-name="Path 55" d="M388.32,239.314l5.853-18.85a7.267,7.267,0,0,1,6.081-5.066l-7.847,26.855a2.654,2.654,0,0,1-4.088-2.939Z" transform="translate(-373.114 -207.646)" fill="#f2d1d1"/>
      <path id="Path_56" data-name="Path 56" d="M364.6,257.946a2.611,2.611,0,0,1-2.271-.764,2.656,2.656,0,0,1-.185-3.513l20.2-25.425a2.527,2.527,0,0,0-.17-3.331,2.656,2.656,0,0,1-.627-2.673l7.641-23.625a7.361,7.361,0,0,1,6.6-5.057l-13.082,41.8Z" transform="translate(-355.914 -193.54)" fill="#f2d1d1"/>
    </g>
    <path id="Path_57" data-name="Path 57" d="M275.179,270.888c.051-.53,1.331-13.1,8.493-23.274a42.623,42.623,0,0,1,17.616-14.163l17.8-17.389a7.842,7.842,0,0,1,11.078.13q.153.157.3.32a7.277,7.277,0,0,1,.033,9.348L308.42,252.968l18.849-18.684a27.225,27.225,0,0,0,6.809-11.182l3.073-9.792-.006.006c.373-1.035.724-2.081,1.042-3.142l5.608-18.757.017-.056a8.021,8.021,0,0,1,15.3,4.829l-8.391,27.231c-.428,1.391-.854,2.81-1.286,4.247-3.865,12.876-8.247,27.469-18.807,36.093l-19.55,15.964v19.022a2.656,2.656,0,0,1-2.656,2.656h-30.6a2.656,2.656,0,0,1-2.656-2.656v-27.6A2.512,2.512,0,0,1,275.179,270.888Z" transform="translate(-177.727 -120.353)" fill="#ffdcdc"/>
    <g id="Group_14" data-name="Group 14" transform="translate(128.73 94.856)">
      <path id="Path_58" data-name="Path 58" d="M387.57,279.494a7.276,7.276,0,0,0-.033-9.347q-.143-.164-.3-.32a7.816,7.816,0,0,0-1.172-.983L364.85,295.685c-1.983,2.5-1.7,8.756.642,10.917Z" transform="translate(-363.529 -268.843)" fill="#f2d1d1"/>
      <path id="Path_59" data-name="Path 59" d="M369.072,375.47Z" transform="translate(-367.109 -337.712)" fill="#f2d1d1"/>
    </g>
    <path id="Path_60" data-name="Path 60" d="M407.021,189.988a8.01,8.01,0,0,0-4.889-3.523l-10.61,34.383c-4.206,13.649-8.172,28.969-19.235,38L350.7,275.612v26.218h6.505a2.656,2.656,0,0,0,2.656-2.656V280.152l19.55-15.964c10.561-8.624,14.942-23.217,18.807-36.093.431-1.437.857-2.856,1.286-4.247l8.391-27.231A8.014,8.014,0,0,0,407.021,189.988Z" transform="translate(-226.513 -120.78)" fill="#f2d1d1"/>
    <g id="Group_15" data-name="Group 15" transform="translate(11.778 68.179)">
      <path id="Path_61" data-name="Path 61" d="M124.575,265.691l-8.808-27.049a7.479,7.479,0,0,0-14.255,4.534l2.915,9.389a2.656,2.656,0,0,0,.681,1.112l15.086,14.736a2.656,2.656,0,0,0,4.381-2.722Z" transform="translate(-77.126 -219.322)" fill="#d6b0b0"/>
      <path id="Path_62" data-name="Path 62" d="M137.11,269.242a2.656,2.656,0,0,0,2.525-3.478l-8.808-27.049a7.433,7.433,0,0,0-6.335-5.127l9.534,33.7,1.229,1.2A2.653,2.653,0,0,0,137.11,269.242Z" transform="translate(-92.185 -219.395)" fill="#f2d1d1"/>
      <path id="Path_63" data-name="Path 63" d="M88.066,239.213l-5.853-18.85a7.276,7.276,0,1,0-13.872,4.4l4.243,13.119a2.656,2.656,0,0,0,4.427,1.039,2.522,2.522,0,0,1,3.567-.042l3.1,3.025a2.656,2.656,0,0,0,4.393-2.688Z" transform="translate(-55.691 -207.545)" fill="#d6b0b0"/>
      <path id="Path_64" data-name="Path 64" d="M74.608,253.636l-20.2-25.424a2.526,2.526,0,0,1,.17-3.331,2.656,2.656,0,0,0,.627-2.673l-7.641-23.625a7.33,7.33,0,0,0-14,4.356l4.106,13.733a63.372,63.372,0,0,0,22.3,32.342L70.913,257.4a2.656,2.656,0,0,0,3.7-3.76Z" transform="translate(-33.26 -193.508)" fill="#d6b0b0"/>
      <path id="Path_65" data-name="Path 65" d="M102.916,239.314l-5.853-18.85a7.267,7.267,0,0,0-6.082-5.066l7.847,26.855a2.654,2.654,0,0,0,4.088-2.939Z" transform="translate(-70.541 -207.646)" fill="#f2d1d1"/>
      <path id="Path_66" data-name="Path 66" d="M86.2,257.946a2.625,2.625,0,0,0,.376.03,2.656,2.656,0,0,0,2.08-4.308l-20.2-25.425a2.526,2.526,0,0,1,.17-3.331,2.656,2.656,0,0,0,.627-2.673l-7.641-23.625a7.361,7.361,0,0,0-6.6-5.057l13.082,41.8Z" transform="translate(-47.31 -193.54)" fill="#f2d1d1"/>
    </g>
    <path id="Path_67" data-name="Path 67" d="M84.286,270.888c-.051-.53-1.331-13.1-8.493-23.274a42.622,42.622,0,0,0-17.616-14.163l-17.8-17.389a7.842,7.842,0,0,0-11.078.13q-.154.157-.3.32a7.277,7.277,0,0,0-.033,9.348l22.078,27.108L32.2,234.284A27.226,27.226,0,0,1,25.387,223.1l-3.073-9.792.006.006c-.373-1.035-.724-2.081-1.041-3.142l-5.608-18.757-.017-.056a8.021,8.021,0,0,0-15.3,4.829L8.747,223.42c.428,1.391.854,2.81,1.286,4.247C13.9,240.543,18.28,255.136,28.84,263.76l19.55,15.964v19.022a2.656,2.656,0,0,0,2.656,2.656h30.6a2.656,2.656,0,0,0,2.656-2.656v-27.6C84.3,271.057,84.294,270.972,84.286,270.888Z" transform="translate(0 -120.353)" fill="#ffdcdc"/>
    <path id="Path_68" data-name="Path 68" d="M128.685,298.744a42.622,42.622,0,0,0-17.616-14.163l-17.8-17.389a7.842,7.842,0,0,0-11.078.13q-.154.157-.3.32l0,0,21.409,22.04a39.847,39.847,0,0,1,16.92,13.42c6.839,9.717,8.021,22,8.021,22v27.427h6.3a2.656,2.656,0,0,0,2.656-2.656v-27.6q0-.128-.012-.254C137.127,321.487,135.846,308.919,128.685,298.744Z" transform="translate(-52.891 -171.483)" fill="#f2d1d1"/>
  </g>
</svg>
