<svg xmlns="http://www.w3.org/2000/svg" viewBox="0 0 16.058 16.2">
      <path d="M14.409,6.792a.675.675,0,0,0,.675-.675V3.485a2.135,2.135,0,0,1,4.269,0V6.117a.675.675,0,0,0,1.35,0V3.485a3.485,3.485,0,1,0-6.969,0V6.117A.675.675,0,0,0,14.409,6.792Z" transform="translate(-9.17)" />
      <path d="M16,15.631H12.418v.842a1.35,1.35,0,1,1-2.7,0v-.842H6.8v.842a1.35,1.35,0,1,1-2.7,0v-.842H.477a.252.252,0,0,0-.257.328l2.361,9.618a1.384,1.384,0,0,0,1.271.979h8.775a1.386,1.386,0,0,0,1.271-.979l2.361-9.618A.252.252,0,0,0,16,15.631Z" transform="translate(-0.21 -10.356)" />
</svg>
