<svg xmlns="http://www.w3.org/2000/svg" width="186.729" height="137.885" viewBox="0 0 186.729 137.885">
  <g id="laptop" transform="translate(0 0)">
    <path id="Path_111" data-name="Path 111" d="M40.641,33.226V137.143H197.726V33.226a7.515,7.515,0,0,0-7.515-7.515H48.156A7.515,7.515,0,0,0,40.641,33.226Zm0,0" transform="translate(-25.819 -16.334)" fill="#63688e"/>
    <path id="Path_112" data-name="Path 112" d="M170.525,97.492h20.2a1.951,1.951,0,0,1,1.717,1.024l8.64,15.974a1.952,1.952,0,0,0,3.435,0l8.642-15.974a1.951,1.951,0,0,1,1.717-1.024h20.2a5.857,5.857,0,0,0,5.858-5.857V27.075a5.833,5.833,0,0,0-.167-1.365H164.834a5.831,5.831,0,0,0-.167,1.365v64.56a5.857,5.857,0,0,0,5.858,5.857Zm0,0" transform="translate(-104.612 -16.334)" fill="#63688e"/>
    <path id="Path_113" data-name="Path 113" d="M67.4,154.144V56.229a3.757,3.757,0,0,1,3.757-3.757H201.211a3.757,3.757,0,0,1,3.757,3.757v97.915Zm0,0" transform="translate(-42.821 -33.335)" fill="#fff"/>
    <path id="Path_114" data-name="Path 114" d="M170.525,114.494h20.2a1.951,1.951,0,0,1,1.717,1.024l8.64,15.974a1.953,1.953,0,0,0,3.435,0l8.642-15.974a1.951,1.951,0,0,1,1.717-1.024h20.2a5.857,5.857,0,0,0,5.858-5.857V52.472H164.667v56.165a5.857,5.857,0,0,0,5.858,5.857Zm0,0" transform="translate(-104.612 -33.335)" fill="#63688e"/>
    <path id="Path_115" data-name="Path 115" d="M223.141,0H161.03a5.636,5.636,0,0,0-5.636,5.636v62.11a5.636,5.636,0,0,0,5.636,5.636h19.438a1.881,1.881,0,0,1,1.653.984l8.314,15.369a1.878,1.878,0,0,0,3.3,0l8.314-15.369a1.876,1.876,0,0,1,1.651-.984h19.438a5.636,5.636,0,0,0,5.636-5.636V5.636A5.636,5.636,0,0,0,223.141,0Zm0,0" transform="translate(-98.721 0)" fill="#8188be"/>
    <path id="Path_116" data-name="Path 116" d="M246.22,202.191l-4.689,8.667,3.624,6.7a1.88,1.88,0,0,0,3.305,0l8.313-15.369a1.883,1.883,0,0,1,1.653-.984H247.871A1.878,1.878,0,0,0,246.22,202.191Zm0,0" transform="translate(-153.444 -127.826)" fill="#6e749e"/>
    <path id="Path_117" data-name="Path 117" d="M322.766,0H312.211a5.636,5.636,0,0,1,5.636,5.636v62.11a5.635,5.635,0,0,1-5.636,5.636h10.555a5.636,5.636,0,0,0,5.636-5.636V5.636A5.636,5.636,0,0,0,322.766,0Zm0,0" transform="translate(-198.346 0)" fill="#6e749e"/>
    <path id="Path_118" data-name="Path 118" d="M233.15,52.9a10.627,10.627,0,0,0-11.679,4.878.36.36,0,0,1-.638,0A10.627,10.627,0,0,0,209.154,52.9c-7.481,1.97-9.82,11.317-6.593,17.645,3.525,6.912,15.8,15.348,18.188,16.942a.723.723,0,0,0,.806,0c2.383-1.594,14.664-10.029,18.188-16.942,3.227-6.328.888-15.675-6.593-17.645Zm0,0" transform="translate(-127.788 -33.407)" fill="#ffb2d6"/>
    <path id="Path_119" data-name="Path 119" d="M180.916,331.25H5.814A5.814,5.814,0,0,0,0,337.064v5.451a5.813,5.813,0,0,0,5.814,5.812h175.1a5.813,5.813,0,0,0,5.814-5.812v-5.451A5.814,5.814,0,0,0,180.916,331.25Zm0,0" transform="translate(-0.001 -210.441)" fill="#f2f7ff"/>
    <path id="Path_120" data-name="Path 120" d="M474.169,331.25H461.6a5.814,5.814,0,0,1,5.814,5.814v5.451a5.813,5.813,0,0,1-5.814,5.812h12.567a5.813,5.813,0,0,0,5.814-5.812v-5.451A5.814,5.814,0,0,0,474.169,331.25Zm0,0" transform="translate(-293.253 -210.441)" fill="#e0e6ef"/>
    <path id="Path_121" data-name="Path 121" d="M221.543,331.25V335.6a4.186,4.186,0,0,0,4.186,4.186h16.762a4.186,4.186,0,0,0,4.186-4.186V331.25Zm0,0" transform="translate(-140.745 -210.441)" fill="#e0e6ef"/>
    <path id="Path_122" data-name="Path 122" d="M220.861,287.967H138.981a2.735,2.735,0,0,1,0-5.471h81.879a2.735,2.735,0,1,1,0,5.471Zm0,0" transform="translate(-86.557 -179.468)" fill="#ffd4e8"/>
    <path id="Path_123" data-name="Path 123" d="M177.159,268.965a7.67,7.67,0,1,0,7.67,7.67A7.679,7.679,0,0,0,177.159,268.965Zm0,0" transform="translate(-107.675 -170.872)" fill="#ffb2d6"/>
  </g>
</svg>
