<svg xmlns="http://www.w3.org/2000/svg" width="16.033" height="16.033" viewBox="0 0 16.033 16.033">
  <path d="M6.138,163.273a11.133,11.133,0,0,0,3.319-.4,1.61,1.61,0,0,1,.467-1.475,1.636,1.636,0,0,1,0-2.349,1.636,1.636,0,0,1,0-2.349,1.633,1.633,0,0,1,.179-2.5,6.664,6.664,0,0,0-.891-.687.92.92,0,0,0,.215-.575A.939.939,0,0,0,8.487,152H3.79a.939.939,0,0,0-.939.939.92.92,0,0,0,.214.573A6.723,6.723,0,0,0,0,159.046c0,3.789,3.516,4.228,6.138,4.228Z" transform="translate(0 -147.24)" fill="#fff"/>
  <path d="M335.963,467H331.7a.7.7,0,1,0,0,1.409h4.259a.7.7,0,1,0,0-1.409Zm0,0" transform="translate(-320.635 -452.376)" fill="#fff"/>
  <path d="M335.963,392H331.7a.7.7,0,1,0,0,1.409h4.259a.7.7,0,1,0,0-1.409Zm0,0" transform="translate(-320.635 -379.725)" fill="#fff"/>
  <path d="M335.963,317H331.7a.7.7,0,1,0,0,1.409h4.259a.7.7,0,1,0,0-1.409Zm0,0" transform="translate(-320.635 -307.073)" fill="#fff"/>
  <path d="M335.963,242H331.7a.7.7,0,1,0,0,1.409h4.259a.7.7,0,1,0,0-1.409Zm0,0" transform="translate(-320.635 -234.422)" fill="#fff"/>
  <path d="M95.61.939a1.405,1.405,0,0,0-2.652,0H91.469a.469.469,0,0,0-.445.618l.733,2.263h5.061l.733-2.263a.469.469,0,0,0-.445-.618Zm0,0" transform="translate(-88.15)" fill="#fff"/>
</svg>
