<svg xmlns="http://www.w3.org/2000/svg" width="170.155" height="167.226" viewBox="0 0 170.155 167.226">
  <g id="piggy-bank" transform="translate(0 0)">
    <path id="XMLID_118_" d="M152.2,71.927c-.262.02-.516.078-.784.078a10.081,10.081,0,0,1-3.745-19.444,60.427,60.427,0,0,0-29.042-32.554A.177.177,0,0,0,118.59,20a33.315,33.315,0,0,1-8.145,11.732,42.554,42.554,0,0,0-42.754,1.88A33.236,33.236,0,0,1,56.51,17.776c-.069-.17-.159-.323-.213-.5-4.149,1.3-7.793,2.58-10.14,3.561-12.089-4.91-20.528-7.032-27.92-6.21a1.037,1.037,0,0,0-.3,1.978c6.721,3.235,7.9,11.8,10.919,18.2C20.081,43.257,19.222,49.4,17.674,60.472H11.533C3.258,60.472,0,67.182,0,75.456v10.4c0,8.275,3.258,14.981,11.533,14.981h3.788c8.6,25.008,38.784,38.392,70.453,38.392,38.614,0,67.082-22.252,67.082-55.691a102.328,102.328,0,0,0-.657-11.61" transform="translate(0 25.745)" fill="#ffd4e8"/>
    <path id="XMLID_117_" d="M25.425,33.62a7.208,7.208,0,1,1-7.208-7.208,7.207,7.207,0,0,1,7.208,7.208" transform="translate(20.732 48.273)" fill="#fff"/>
    <path id="XMLID_116_" d="M54.9,51.594a2.883,2.883,0,1,1,0-5.766A11.544,11.544,0,0,0,66.433,34.3a2.883,2.883,0,0,1,5.766,0,17.316,17.316,0,0,1-17.3,17.3" transform="translate(97.956 57.689)" fill="#ffb2d6"/>
    <path id="XMLID_115_" d="M69.316,46.594a2.884,2.884,0,0,1-2.883-2.883A11.544,11.544,0,0,0,54.9,32.178a2.883,2.883,0,1,1,0-5.766,17.316,17.316,0,0,1,17.3,17.3,2.882,2.882,0,0,1-2.883,2.883" transform="translate(97.956 48.273)" fill="#ffb2d6"/>
    <path id="XMLID_112_" d="M60.991,52.36A12.974,12.974,0,1,1,73.965,39.386,12.99,12.99,0,0,1,60.991,52.36m0-20.182A7.208,7.208,0,1,0,68.2,39.386a7.218,7.218,0,0,0-7.208-7.208" transform="translate(90.424 48.273)" fill="#ffb2d6"/>
    <path id="XMLID_111_" d="M57.844,44.478a2.882,2.882,0,0,1-2.618-4.088,14.417,14.417,0,0,0,.063-11.916,2.882,2.882,0,0,1,5.262-2.356A20.191,20.191,0,0,1,60.465,42.8a2.881,2.881,0,0,1-2.621,1.678" transform="translate(103.501 44.502)" fill="#ffb2d6"/>
    <path id="XMLID_110_" d="M67.005,50.155C60.045,58.2,50.462,64.311,39.033,67.993l.853,2.84a4.782,4.782,0,0,0,4.578,3.408H61.813A9.69,9.69,0,0,0,70.95,61.327Z" transform="translate(73.505 92.985)" fill="#ffb2d6"/>
    <path id="XMLID_109_" d="M12.421,50.266,7.771,61.9a8.848,8.848,0,0,0,8.214,12.135H35.42a3.094,3.094,0,0,0,2.872-1.946l2.09-5.23c-11.04-3.61-20.767-9.16-27.961-16.59" transform="translate(13.424 93.194)" fill="#ffb2d6"/>
    <path id="XMLID_108_" d="M49.317,62.414a72.982,72.982,0,0,1-30.311-6.406,2.884,2.884,0,0,1,2.335-5.273c11.288,5,22.154,6.724,35.252,5.59a2.882,2.882,0,0,1,.5,5.743q-3.979.346-7.773.346" transform="translate(32.561 93.611)" fill="#ffb2d6"/>
    <path id="XMLID_107_" d="M83.064,35.97a2.875,2.875,0,0,1-2.038-.845,39.715,39.715,0,0,0-56.095,0,2.883,2.883,0,0,1-4.077-4.077,45.48,45.48,0,0,1,64.248,0,2.883,2.883,0,0,1-2.038,4.922" transform="translate(37.68 31.986)" fill="#ffb2d6"/>
    <path id="XMLID_106_" d="M29.628,57.9A45.55,45.55,0,0,1,76.715,55.87,33.159,33.159,0,1,0,29.628,57.9" transform="translate(35.797 -0.508)" fill="#8188be"/>
    <path id="XMLID_105_" d="M33.765,44.758a45.739,45.739,0,0,1,23.319-.908,21.63,21.63,0,1,0-23.319.908" transform="translate(43.475 7.027)" fill="#63688e"/>
  </g>
</svg>
